<svg width="100" height="100" viewBox="0 0 147 147" fill="none" xmlns="http://www.w3.org/2000/svg">
<path opacity="0.8" d="M73.4998 147C96.9721 147 116 128.112 116 104.812C116 81.5113 96.9721 76 73.4998 76C50.0278 76 31 81.5113 31 104.811C31 128.112 50.0278 147 73.4998 147Z" fill="#0288CD"/>
<path opacity="0.8" d="M73.5 0C50.0278 0 31 18.8883 31 42.1883C31 65.4883 50.0278 71 73.5 71C96.9718 71 116 65.4883 116 42.1883C116 18.8883 96.9718 0 73.5 0Z" fill="#C54389"/>
<path opacity="0.9" d="M147 72C147 95.7482 128.112 115 104.812 115C81.5114 115 76 95.7482 76 72C76 48.2518 81.5114 29 104.812 29C128.112 29 147 48.2518 147 72Z" fill="#2AB9E3"/>
<path opacity="0.9" d="M0 72C0 95.7482 18.8886 115 42.1884 115C65.4886 115 71 95.7482 71 72C71 48.2518 65.4886 29 42.1884 29C18.8886 29 0 48.2518 0 72Z" fill="#EAB624"/>
</svg>
