<svg width="258" height="49" viewBox="0 0 258 49" fill="none" xmlns="http://www.w3.org/2000/svg">
<path d="M42.299 0H5.61492C2.51388 0 0 2.52435 0 5.6383V42.4752C0 45.5891 2.51388 48.1135 5.61492 48.1135H42.299C45.4001 48.1135 47.9139 45.5891 47.9139 42.4752V5.6383C47.9139 2.52435 45.4001 0 42.299 0Z" fill="#02013B"/>
<path opacity="0.8" d="M23.826 41.0698C29.2442 41.0698 33.6365 36.6492 33.6365 31.1962C33.6365 25.743 29.2442 24.4531 23.826 24.4531C18.4079 24.4531 14.0156 25.743 14.0156 31.1961C14.0156 36.6492 18.4079 41.0698 23.826 41.0698Z" fill="#0288CD"/>
<path opacity="0.8" d="M23.8261 6.76587C18.4079 6.76587 14.0156 11.1864 14.0156 16.6395C14.0156 22.0926 18.4079 23.3826 23.8261 23.3826C29.2442 23.3826 33.6366 22.0926 33.6366 16.6395C33.6366 11.1864 29.2442 6.76587 23.8261 6.76587Z" fill="#C54389"/>
<path opacity="0.9" d="M40.8422 23.3598C40.8422 28.8129 36.45 33.2335 31.0318 33.2335C25.6136 33.2335 24.332 28.8129 24.332 23.3598C24.332 17.9067 25.6136 13.4861 31.0318 13.4861C36.45 13.4861 40.8422 17.9067 40.8422 23.3598Z" fill="#2AB9E3"/>
<path opacity="0.9" d="M6.73633 23.3595C6.73633 28.8126 11.1287 33.2332 16.5468 33.2332C21.965 33.2332 23.2466 28.8126 23.2466 23.3595C23.2466 17.9065 21.965 13.4858 16.5468 13.4858C11.1287 13.4858 6.73633 17.9065 6.73633 23.3595Z" fill="#EAB624"/>
<path d="M62.609 38.5458C57.9666 38.5458 55.1127 36.6005 53.248 34.0448L58.0046 29.5437C59.2985 31.1077 60.5161 32.0231 62.1524 32.0231C64.017 32.0231 65.1966 30.7644 65.1966 28.2849V11.387H72.5408V28.3231C72.5408 31.6799 71.7036 34.0448 69.9152 35.8375C68.1647 37.5922 65.6533 38.5458 62.609 38.5458ZM90.5188 38.6221C82.2233 38.6221 76.0207 32.9005 76.0207 24.8138V24.7375C76.0207 16.9561 82.1092 10.853 90.3667 10.853C95.0473 10.853 98.3573 12.3025 101.173 14.7437L96.8357 19.9695C94.9332 18.3675 93.0307 17.452 90.4047 17.452C86.5613 17.452 83.5933 20.6942 83.5933 24.7757V24.852C83.5933 29.1623 86.5994 32.252 90.8231 32.252C92.6114 32.252 93.9815 31.8705 95.0848 31.1458V27.9035H89.8339V22.487H102.087V34.5025C99.2707 36.8293 95.3515 38.6221 90.5188 38.6221ZM106.18 38.0881V11.387H116.454C125.968 11.387 131.485 16.8798 131.485 24.585V24.6612C131.485 32.3664 125.891 38.0881 116.302 38.0881H106.18ZM113.563 31.5273H116.568C120.983 31.5273 123.913 29.086 123.913 24.7757V24.6994C123.913 20.4272 120.983 17.9479 116.568 17.9479H113.563V31.5273ZM135.277 38.0881V11.387H142.659V21.3809H152.134V11.387H159.516V38.0881H152.134V27.9417H142.659V38.0881H135.277ZM174.003 38.584C167.534 38.584 162.967 34.2737 162.967 27.8654V27.7891C162.967 21.7623 167.267 16.9943 173.356 16.9943C180.472 16.9943 183.744 22.22 183.744 28.2849C183.744 28.7427 183.744 29.2767 183.707 29.7726H169.932C170.502 32.0231 172.138 33.1674 174.383 33.1674C176.096 33.1674 177.466 32.519 178.95 31.0695L182.945 34.388C180.967 36.9056 178.113 38.584 174.003 38.584ZM169.817 26.0726H176.971C176.705 23.7839 175.372 22.3345 173.394 22.3345C171.492 22.3345 170.197 23.822 169.817 26.0726ZM192.744 38.5458C188.825 38.5458 185.818 36.2953 185.818 32.1757V32.0994C185.818 27.8272 189.053 25.6148 193.886 25.6148C195.788 25.6148 197.652 25.9964 198.833 26.4159V26.0726C198.833 23.9365 197.501 22.7159 194.722 22.7159C192.554 22.7159 190.879 23.1355 189.053 23.8602L187.569 18.7489C189.89 17.7953 192.363 17.1468 195.902 17.1468C199.593 17.1468 202.105 18.0241 203.741 19.6644C205.302 21.1901 205.948 23.3263 205.948 26.2252V38.0881H198.794V35.952C197.387 37.5159 195.446 38.5458 192.744 38.5458ZM195.332 34.0066C197.424 34.0066 198.908 32.6715 198.908 30.6118V29.6582C198.186 29.353 197.158 29.1241 196.092 29.1241C194 29.1241 192.782 30.154 192.782 31.6799V31.7561C192.782 33.1674 193.847 34.0066 195.332 34.0066ZM209.781 38.0881V10.2427H217.01V38.0881H209.781ZM229.218 38.5077C224.879 38.5077 222.292 36.6005 222.292 31.6799V23.2881H219.857V17.452H222.292V12.2262H229.522V17.452H234.317V23.2881H229.522V30.2685C229.522 31.7179 230.169 32.3283 231.501 32.3283C232.452 32.3283 233.365 32.0613 234.24 31.6417V37.3252C232.947 38.0499 231.234 38.5077 229.218 38.5077ZM237.422 38.0881V10.2427H244.652V20.2746C245.984 18.5581 247.886 16.9943 250.816 16.9943C255.192 16.9943 257.818 19.8932 257.818 24.585V38.0881H250.588V26.9117C250.588 24.6612 249.409 23.4406 247.696 23.4406C245.945 23.4406 244.652 24.6612 244.652 26.9117V38.0881H237.422Z" fill="#02013B"/>
</svg>
